<mxfile host="Electron" modified="2024-04-09T13:39:11.003Z" agent="Mozilla/5.0 (Windows NT 10.0; Win64; x64) AppleWebKit/537.36 (KHTML, like Gecko) draw.io/24.0.4 Chrome/120.0.6099.109 Electron/28.1.0 Safari/537.36" etag="H9OXX6XHOjk0zeirdSqr" version="24.0.4" type="device">
  <diagram id="C5RBs43oDa-KdzZeNtuy" name="Page-1">
    <mxGraphModel dx="2901" dy="1196" grid="1" gridSize="10" guides="1" tooltips="1" connect="1" arrows="1" fold="1" page="1" pageScale="1" pageWidth="827" pageHeight="1169" math="0" shadow="0">
      <root>
        <mxCell id="WIyWlLk6GJQsqaUBKTNV-0" />
        <mxCell id="WIyWlLk6GJQsqaUBKTNV-1" parent="WIyWlLk6GJQsqaUBKTNV-0" />
        <mxCell id="BryNzcegOBleybwujqnM-6" style="edgeStyle=orthogonalEdgeStyle;rounded=0;orthogonalLoop=1;jettySize=auto;html=1;entryX=0.5;entryY=1;entryDx=0;entryDy=0;strokeWidth=2;fontFamily=Lucida Console;endArrow=block;endFill=0;startSize=6;endSize=8;" parent="WIyWlLk6GJQsqaUBKTNV-1" source="BryNzcegOBleybwujqnM-1" target="BryNzcegOBleybwujqnM-5" edge="1">
          <mxGeometry relative="1" as="geometry" />
        </mxCell>
        <mxCell id="BryNzcegOBleybwujqnM-7" value="Derives from" style="edgeLabel;html=1;align=center;verticalAlign=middle;resizable=0;points=[];fontSize=12;fontFamily=Lucida Console;" parent="BryNzcegOBleybwujqnM-6" vertex="1" connectable="0">
          <mxGeometry x="-0.0222" y="-4" relative="1" as="geometry">
            <mxPoint as="offset" />
          </mxGeometry>
        </mxCell>
        <mxCell id="BryNzcegOBleybwujqnM-27" style="edgeStyle=orthogonalEdgeStyle;rounded=0;orthogonalLoop=1;jettySize=auto;html=1;entryX=0.5;entryY=0;entryDx=0;entryDy=0;strokeWidth=2;endArrow=diamondThin;endFill=1;endSize=16;startSize=16;startArrow=none;startFill=0;" parent="WIyWlLk6GJQsqaUBKTNV-1" source="BryNzcegOBleybwujqnM-1" target="BryNzcegOBleybwujqnM-15" edge="1">
          <mxGeometry relative="1" as="geometry" />
        </mxCell>
        <mxCell id="BryNzcegOBleybwujqnM-28" value="Decorates&lt;div style=&quot;font-size: 12px;&quot;&gt;«data annotation»&lt;/div&gt;" style="edgeLabel;html=1;align=center;verticalAlign=middle;resizable=0;points=[];fontSize=12;" parent="BryNzcegOBleybwujqnM-27" vertex="1" connectable="0">
          <mxGeometry x="-0.275" y="4" relative="1" as="geometry">
            <mxPoint x="-4" y="11" as="offset" />
          </mxGeometry>
        </mxCell>
        <mxCell id="BryNzcegOBleybwujqnM-1" value="ApiKeyAuthorizationAttribute" style="swimlane;fontStyle=1;align=center;verticalAlign=top;childLayout=stackLayout;horizontal=1;startSize=26;horizontalStack=0;resizeParent=1;resizeParentMax=0;resizeLast=0;collapsible=1;marginBottom=0;whiteSpace=wrap;html=1;fontFamily=Lucida Console;" parent="WIyWlLk6GJQsqaUBKTNV-1" vertex="1">
          <mxGeometry x="10" y="170" width="440" height="250" as="geometry">
            <mxRectangle x="10" y="170" width="240" height="30" as="alternateBounds" />
          </mxGeometry>
        </mxCell>
        <mxCell id="BryNzcegOBleybwujqnM-2" value="- apiKey: string" style="text;strokeColor=none;fillColor=none;align=left;verticalAlign=top;spacingLeft=4;spacingRight=4;overflow=hidden;rotatable=0;points=[[0,0.5],[1,0.5]];portConstraint=eastwest;whiteSpace=wrap;html=1;fontFamily=Lucida Console;" parent="BryNzcegOBleybwujqnM-1" vertex="1">
          <mxGeometry y="26" width="440" height="26" as="geometry" />
        </mxCell>
        <mxCell id="BryNzcegOBleybwujqnM-3" value="" style="line;strokeWidth=1;fillColor=none;align=left;verticalAlign=middle;spacingTop=-1;spacingLeft=3;spacingRight=3;rotatable=0;labelPosition=right;points=[];portConstraint=eastwest;strokeColor=inherit;fontFamily=Lucida Console;" parent="BryNzcegOBleybwujqnM-1" vertex="1">
          <mxGeometry y="52" width="440" height="8" as="geometry" />
        </mxCell>
        <mxCell id="BryNzcegOBleybwujqnM-4" value="+ «constructor» ApiKeyAuthorizationAttribute()" style="text;strokeColor=none;fillColor=none;align=left;verticalAlign=top;spacingLeft=4;spacingRight=4;overflow=hidden;rotatable=0;points=[[0,0.5],[1,0.5]];portConstraint=eastwest;whiteSpace=wrap;html=1;fontFamily=Lucida Console;" parent="BryNzcegOBleybwujqnM-1" vertex="1">
          <mxGeometry y="60" width="440" height="26" as="geometry" />
        </mxCell>
        <mxCell id="BryNzcegOBleybwujqnM-9" value="- IsValidApiKey(string): bool" style="text;strokeColor=none;fillColor=none;align=left;verticalAlign=top;spacingLeft=4;spacingRight=4;overflow=hidden;rotatable=0;points=[[0,0.5],[1,0.5]];portConstraint=eastwest;whiteSpace=wrap;html=1;fontFamily=Lucida Console;" parent="BryNzcegOBleybwujqnM-1" vertex="1">
          <mxGeometry y="86" width="440" height="26" as="geometry" />
        </mxCell>
        <mxCell id="BryNzcegOBleybwujqnM-12" value="- ExecuteAuthorizationFilterAsyncCore(HttpActionContext, CancellationToken, Func&amp;lt;Task&amp;lt;HttpResponseMessage&amp;gt;&amp;gt;): Task&amp;lt;HttpResponseMessage&amp;gt;" style="text;strokeColor=none;fillColor=none;align=left;verticalAlign=top;spacingLeft=4;spacingRight=4;overflow=hidden;rotatable=0;points=[[0,0.5],[1,0.5]];portConstraint=eastwest;whiteSpace=wrap;html=1;fontFamily=Lucida Console;fontSize=12;" parent="BryNzcegOBleybwujqnM-1" vertex="1">
          <mxGeometry y="112" width="440" height="58" as="geometry" />
        </mxCell>
        <mxCell id="BryNzcegOBleybwujqnM-13" value="+ OnAuthorization(HttpActionContext): void" style="text;strokeColor=none;fillColor=none;align=left;verticalAlign=top;spacingLeft=4;spacingRight=4;overflow=hidden;rotatable=0;points=[[0,0.5],[1,0.5]];portConstraint=eastwest;whiteSpace=wrap;html=1;fontFamily=Lucida Console;fontSize=12;" parent="BryNzcegOBleybwujqnM-1" vertex="1">
          <mxGeometry y="170" width="440" height="30" as="geometry" />
        </mxCell>
        <mxCell id="BryNzcegOBleybwujqnM-14" value="+ OnAuthorizationAsync(HttpActionContext, CancellationToken): Task" style="text;strokeColor=none;fillColor=none;align=left;verticalAlign=top;spacingLeft=4;spacingRight=4;overflow=hidden;rotatable=0;points=[[0,0.5],[1,0.5]];portConstraint=eastwest;whiteSpace=wrap;html=1;fontFamily=Lucida Console;fontSize=12;" parent="BryNzcegOBleybwujqnM-1" vertex="1">
          <mxGeometry y="200" width="440" height="50" as="geometry" />
        </mxCell>
        <mxCell id="BryNzcegOBleybwujqnM-5" value="&lt;p style=&quot;margin:0px;margin-top:4px;text-align:center;&quot;&gt;&lt;br&gt;&lt;b&gt;AuthorizationFilterAttribute&lt;/b&gt;&lt;/p&gt;&lt;p style=&quot;margin:0px;margin-top:4px;text-align:center;&quot;&gt;«&lt;i style=&quot;&quot;&gt;System.Web.HTTP&lt;/i&gt;»&lt;/p&gt;" style="verticalAlign=top;align=left;overflow=fill;html=1;whiteSpace=wrap;fontFamily=Lucida Console;" parent="WIyWlLk6GJQsqaUBKTNV-1" vertex="1">
          <mxGeometry x="77.5" y="20" width="305" height="60" as="geometry" />
        </mxCell>
        <mxCell id="BryNzcegOBleybwujqnM-8" value="&lt;font style=&quot;font-size: 14px;&quot;&gt;AppSettings&lt;/font&gt;" style="whiteSpace=wrap;html=1;shape=mxgraph.basic.document;fontFamily=Lucida Console;" parent="WIyWlLk6GJQsqaUBKTNV-1" vertex="1">
          <mxGeometry x="580" y="161" width="100" height="129" as="geometry" />
        </mxCell>
        <mxCell id="BryNzcegOBleybwujqnM-10" style="edgeStyle=orthogonalEdgeStyle;rounded=0;orthogonalLoop=1;jettySize=auto;html=1;entryX=0;entryY=0.5;entryDx=0;entryDy=0;entryPerimeter=0;strokeWidth=2;fontFamily=Lucida Console;" parent="WIyWlLk6GJQsqaUBKTNV-1" source="BryNzcegOBleybwujqnM-4" target="BryNzcegOBleybwujqnM-8" edge="1">
          <mxGeometry relative="1" as="geometry" />
        </mxCell>
        <mxCell id="BryNzcegOBleybwujqnM-11" value="Reads" style="edgeLabel;html=1;align=center;verticalAlign=middle;resizable=0;points=[];fontSize=12;fontFamily=Lucida Console;" parent="BryNzcegOBleybwujqnM-10" vertex="1" connectable="0">
          <mxGeometry x="-0.15" relative="1" as="geometry">
            <mxPoint as="offset" />
          </mxGeometry>
        </mxCell>
        <mxCell id="BryNzcegOBleybwujqnM-25" style="edgeStyle=orthogonalEdgeStyle;rounded=0;orthogonalLoop=1;jettySize=auto;html=1;entryX=1;entryY=0.5;entryDx=0;entryDy=0;strokeWidth=2;endArrow=block;endFill=0;endSize=8;" parent="WIyWlLk6GJQsqaUBKTNV-1" source="BryNzcegOBleybwujqnM-15" target="BryNzcegOBleybwujqnM-24" edge="1">
          <mxGeometry relative="1" as="geometry" />
        </mxCell>
        <mxCell id="BryNzcegOBleybwujqnM-26" value="&lt;font style=&quot;font-size: 12px;&quot;&gt;Derives from&lt;/font&gt;" style="edgeLabel;html=1;align=center;verticalAlign=middle;resizable=0;points=[];" parent="BryNzcegOBleybwujqnM-25" vertex="1" connectable="0">
          <mxGeometry y="1" relative="1" as="geometry">
            <mxPoint x="-2" y="-1" as="offset" />
          </mxGeometry>
        </mxCell>
        <mxCell id="BryNzcegOBleybwujqnM-15" value="TestTransactionController" style="swimlane;fontStyle=1;align=center;verticalAlign=top;childLayout=stackLayout;horizontal=1;startSize=26;horizontalStack=0;resizeParent=1;resizeParentMax=0;resizeLast=0;collapsible=1;marginBottom=0;whiteSpace=wrap;html=1;fontFamily=Lucida Console;" parent="WIyWlLk6GJQsqaUBKTNV-1" vertex="1">
          <mxGeometry x="10" y="530" width="440" height="300" as="geometry">
            <mxRectangle x="10" y="170" width="240" height="30" as="alternateBounds" />
          </mxGeometry>
        </mxCell>
        <mxCell id="BryNzcegOBleybwujqnM-16" value="- companyService: ICompanyService" style="text;strokeColor=none;fillColor=none;align=left;verticalAlign=top;spacingLeft=4;spacingRight=4;overflow=hidden;rotatable=0;points=[[0,0.5],[1,0.5]];portConstraint=eastwest;whiteSpace=wrap;html=1;fontFamily=Lucida Console;" parent="BryNzcegOBleybwujqnM-15" vertex="1">
          <mxGeometry y="26" width="440" height="26" as="geometry" />
        </mxCell>
        <mxCell id="BryNzcegOBleybwujqnM-29" value="- boardService: IBoardService" style="text;strokeColor=none;fillColor=none;align=left;verticalAlign=top;spacingLeft=4;spacingRight=4;overflow=hidden;rotatable=0;points=[[0,0.5],[1,0.5]];portConstraint=eastwest;whiteSpace=wrap;html=1;fontFamily=Lucida Console;" parent="BryNzcegOBleybwujqnM-15" vertex="1">
          <mxGeometry y="52" width="440" height="26" as="geometry" />
        </mxCell>
        <mxCell id="BryNzcegOBleybwujqnM-17" value="" style="line;strokeWidth=1;fillColor=none;align=left;verticalAlign=middle;spacingTop=-1;spacingLeft=3;spacingRight=3;rotatable=0;labelPosition=right;points=[];portConstraint=eastwest;strokeColor=inherit;fontFamily=Lucida Console;" parent="BryNzcegOBleybwujqnM-15" vertex="1">
          <mxGeometry y="78" width="440" height="8" as="geometry" />
        </mxCell>
        <mxCell id="BryNzcegOBleybwujqnM-18" value="+ «constructor»&amp;nbsp;&lt;span style=&quot;text-align: center;&quot;&gt;TestTransactionController&lt;/span&gt;(ICompanyService, IBoardService)" style="text;strokeColor=none;fillColor=none;align=left;verticalAlign=top;spacingLeft=4;spacingRight=4;overflow=hidden;rotatable=0;points=[[0,0.5],[1,0.5]];portConstraint=eastwest;whiteSpace=wrap;html=1;fontFamily=Lucida Console;" parent="BryNzcegOBleybwujqnM-15" vertex="1">
          <mxGeometry y="86" width="440" height="44" as="geometry" />
        </mxCell>
        <mxCell id="BryNzcegOBleybwujqnM-21" value="- ValidateInput(TestRunIdentifier, &lt;i&gt;out&lt;/i&gt;&amp;nbsp;Guid, &lt;i&gt;out&lt;/i&gt;&amp;nbsp;ObjectId): void" style="text;strokeColor=none;fillColor=none;align=left;verticalAlign=top;spacingLeft=4;spacingRight=4;overflow=hidden;rotatable=0;points=[[0,0.5],[1,0.5]];portConstraint=eastwest;whiteSpace=wrap;html=1;fontFamily=Lucida Console;fontSize=12;" parent="BryNzcegOBleybwujqnM-15" vertex="1">
          <mxGeometry y="130" width="440" height="50" as="geometry" />
        </mxCell>
        <mxCell id="BryNzcegOBleybwujqnM-19" value="+ [HttpPost] [Route(&quot;testtransaction/start&quot;)] Start([FromBody] TestRunIdentifier): Task&amp;lt;IHttpActionResult&amp;gt;" style="text;strokeColor=none;fillColor=none;align=left;verticalAlign=top;spacingLeft=4;spacingRight=4;overflow=hidden;rotatable=0;points=[[0,0.5],[1,0.5]];portConstraint=eastwest;whiteSpace=wrap;html=1;fontFamily=Lucida Console;" parent="BryNzcegOBleybwujqnM-15" vertex="1">
          <mxGeometry y="180" width="440" height="60" as="geometry" />
        </mxCell>
        <mxCell id="BryNzcegOBleybwujqnM-31" value="+ [HttpDelete] [Route(&quot;testtransaction/cleanup&quot;)] Start([FromBody] TestRunIdentifier): Task&amp;lt;IHttpActionResult&amp;gt;" style="text;strokeColor=none;fillColor=none;align=left;verticalAlign=top;spacingLeft=4;spacingRight=4;overflow=hidden;rotatable=0;points=[[0,0.5],[1,0.5]];portConstraint=eastwest;whiteSpace=wrap;html=1;fontFamily=Lucida Console;" parent="BryNzcegOBleybwujqnM-15" vertex="1">
          <mxGeometry y="240" width="440" height="60" as="geometry" />
        </mxCell>
        <mxCell id="BryNzcegOBleybwujqnM-24" value="&lt;p style=&quot;margin:0px;margin-top:4px;text-align:center;&quot;&gt;&lt;br&gt;&lt;b&gt;ApiController&lt;/b&gt;&lt;/p&gt;&lt;p style=&quot;margin:0px;margin-top:4px;text-align:center;&quot;&gt;«&lt;i&gt;System.Web.Http.Filters&lt;/i&gt;»&lt;/p&gt;" style="verticalAlign=top;align=left;overflow=fill;html=1;whiteSpace=wrap;fontFamily=Lucida Console;" parent="WIyWlLk6GJQsqaUBKTNV-1" vertex="1">
          <mxGeometry x="-450" y="647" width="305" height="60" as="geometry" />
        </mxCell>
      </root>
    </mxGraphModel>
  </diagram>
</mxfile>
